<svg xmlns="http://www.w3.org/2000/svg" width="34.5" height="46" viewBox="0 0 34.5 46">
  <g id="Group_34955" data-name="Group 34955" transform="translate(-647.817 -2691.817)">
    <path id="Path_186" data-name="Path 186" d="M29.708,43.25H4.792A4.8,4.8,0,0,1,0,38.458V7.792A4.8,4.8,0,0,1,4.792,3H8.625a.958.958,0,1,1,0,1.917H4.792A2.878,2.878,0,0,0,1.917,7.792V38.458a2.878,2.878,0,0,0,2.875,2.875H29.708a2.878,2.878,0,0,0,2.875-2.875V7.792a2.878,2.878,0,0,0-2.875-2.875H25.875a.958.958,0,0,1,0-1.917h3.833A4.8,4.8,0,0,1,34.5,7.792V38.458A4.8,4.8,0,0,1,29.708,43.25Z" transform="translate(647.817 2694.567)" fill="#fff"/>
    <path id="Path_187" data-name="Path 187" d="M20.292,11.5H6.875A2.878,2.878,0,0,1,4,8.625V4.792a.959.959,0,0,1,.958-.958H8.887a4.793,4.793,0,0,1,9.392,0h3.929a.959.959,0,0,1,.958.958V8.625A2.878,2.878,0,0,1,20.292,11.5ZM5.917,5.75V8.625a.96.96,0,0,0,.958.958H20.292a.96.96,0,0,0,.958-.958V5.75H17.417a.959.959,0,0,1-.958-.958,2.875,2.875,0,0,0-5.75,0,.959.959,0,0,1-.958.958Z" transform="translate(651.484 2691.817)" fill="#fff"/>
    <path id="Path_189" data-name="Path 189" d="M25.042,10.917H3.958A.958.958,0,1,1,3.958,9H25.042a.958.958,0,1,1,0,1.917Z" transform="translate(650.567 2700.067)" fill="#fff"/>
    <path id="Path_190" data-name="Path 190" d="M25.042,13.917H3.958a.958.958,0,1,1,0-1.917H25.042a.958.958,0,1,1,0,1.917Z" transform="translate(650.567 2702.817)" fill="#fff"/>
    <path id="Path_191" data-name="Path 191" d="M25.042,16.917H3.958a.958.958,0,0,1,0-1.917H25.042a.958.958,0,1,1,0,1.917Z" transform="translate(650.567 2705.567)" fill="#fff"/>
    <path id="Path_192" data-name="Path 192" d="M25.042,19.917H3.958a.958.958,0,0,1,0-1.917H25.042a.958.958,0,1,1,0,1.917Z" transform="translate(650.567 2708.317)" fill="#fff"/>
  </g>
</svg>
