<svg id="instagram_3_" data-name="instagram (3)" xmlns="http://www.w3.org/2000/svg" width="17.272" height="17.272" viewBox="0 0 17.272 17.272">
  <path id="Path_195" data-name="Path 195" d="M14.742,0H2.53A2.533,2.533,0,0,0,0,2.53V14.742a2.533,2.533,0,0,0,2.53,2.53H14.742a2.533,2.533,0,0,0,2.53-2.53V2.53A2.533,2.533,0,0,0,14.742,0ZM8.67,13.157A4.554,4.554,0,1,1,13.224,8.6,4.559,4.559,0,0,1,8.67,13.157Zm5.06-8.1a1.518,1.518,0,1,1,1.518-1.518A1.52,1.52,0,0,1,13.73,5.06Zm0,0" fill="#fff"/>
  <path id="Path_197" data-name="Path 197" d="M154.656,150a2.656,2.656,0,1,0,2.656,2.656A2.659,2.659,0,0,0,154.656,150Zm0,0" transform="translate(-145.986 -144.054)" fill="#fff"/>
</svg>
